<svg width="50" height="36" viewBox="0 0 50 36" fill="none" xmlns="http://www.w3.org/2000/svg">
<path fill-rule="evenodd" clip-rule="evenodd" d="M9.95041 6.94179C10.6204 2.93586 14.0967 0 18.1704 0H50L47.2221 16.6155H37.5C37.5 16.6155 31.25 15.9232 29.1667 13.8463C27.6637 12.3476 26.8833 8.68717 26.5654 6.76428C26.4504 6.06828 25.8533 5.53862 25.1458 5.53862H24.8542C24.1467 5.53862 23.5496 6.06828 23.4346 6.76428C23.1167 8.68717 22.3363 12.3476 20.8333 13.8463C18.75 15.9232 12.5 16.6155 12.5 16.6155H8.33333L9.95041 6.94179ZM12.5 19.3846H2.77779L0 36H31.8296C35.9033 36 39.3796 33.0641 40.0496 29.0582L41.6667 19.3846H37.5C37.5 19.3846 31.25 20.0768 29.1667 22.1537C27.6637 23.6524 26.8833 27.3128 26.5654 29.2357C26.4504 29.9317 25.8533 30.4614 25.1458 30.4614H24.8542C24.1467 30.4614 23.5496 29.9317 23.4346 29.2357C23.1167 27.3128 22.3363 23.6524 20.8333 22.1537C18.75 20.0768 12.5 19.3846 12.5 19.3846Z" fill="#F0F4F8"/>
</svg>
